<svg width="303" height="12" viewBox="0 0 303 12" fill="none" xmlns="http://www.w3.org/2000/svg">
<path d="M0 12V0.199999H0.6V12H0ZM1.8 12V0.199999H3V12H1.8ZM5.4 12V0.199999H6V12H5.4ZM6.60156 12V0.199999H7.20156V12H6.60156ZM8.40156 12V0.199999H10.8016V12H8.40156ZM11.4016 12V0.199999H12.0016V12H11.4016ZM13.2031 12V0.199999H13.8031V12H13.2031ZM15.0031 12V0.199999H17.4031V12H15.0031ZM18.0031 12V0.199999H18.6031V12H18.0031ZM19.8047 12V0.199999H20.4047V12H19.8047ZM21.0047 12V0.199999H21.6047V12H21.0047ZM22.8047 12V0.199999H25.2047V12H22.8047ZM26.4062 12V0.199999H27.0063V12H26.4062ZM27.6063 12V0.199999H30.0063V12H27.6063ZM31.2063 12V0.199999H31.8063V12H31.2063ZM33.0078 12V0.199999H34.8078V12H33.0078ZM36.0078 12V0.199999H36.6078V12H36.0078ZM37.8078 12V0.199999H39.0078V12H37.8078ZM39.6094 12V0.199999H40.2094V12H39.6094ZM40.8094 12V0.199999H42.6094V12H40.8094ZM43.8094 12V0.199999H45.0094V12H43.8094ZM46.2109 12V0.199999H46.8109V12H46.2109ZM47.4109 12V0.199999H49.2109V12H47.4109ZM50.4109 12V0.199999H51.6109V12H50.4109ZM52.8125 12V0.199999H53.4125V12H52.8125ZM55.8125 12V0.199999H56.4125V12H55.8125ZM57.0125 12V0.199999H58.2125V12H57.0125ZM59.4141 12V0.199999H60.0141V12H59.4141ZM61.2141 12V0.199999H62.4141V12H61.2141ZM63.6141 12V0.199999H65.4141V12H63.6141ZM66.0156 12V0.199999H66.6156V12H66.0156ZM67.8156 12V0.199999H70.2156V12H67.8156ZM70.8156 12V0.199999H71.4156V12H70.8156ZM72.6172 12V0.199999H73.2172V12H72.6172ZM73.8172 12V0.199999H75.0172V12H73.8172ZM76.2172 12V0.199999H76.8172V12H76.2172ZM79.2188 12V0.199999H80.4188V12H79.2188ZM82.8188 12V0.199999H83.4188V12H82.8188ZM84.0188 12V0.199999H84.6188V12H84.0188ZM85.8203 12V0.199999H86.4203V12H85.8203ZM88.2203 12V0.199999H90.6203V12H88.2203ZM91.2203 12V0.199999H91.8203V12H91.2203ZM92.4219 12V0.199999H93.0219V12H92.4219ZM94.2219 12V0.199999H94.8219V12H94.2219ZM96.0219 12V0.199999H98.4219V12H96.0219ZM99.0234 12V0.199999H99.6234V12H99.0234ZM100.823 12V0.199999H102.023V12H100.823ZM103.223 12V0.199999H105.023V12H103.223ZM105.625 12V0.199999H106.225V12H105.625ZM108.625 12V0.199999H109.225V12H108.625ZM109.825 12V0.199999H111.025V12H109.825ZM112.227 12V0.199999H112.827V12H112.227ZM114.627 12V0.199999H117.027V12H114.627ZM117.627 12V0.199999H118.227V12H117.627ZM118.828 12V0.199999H121.228V12H118.828ZM121.828 12V0.199999H123.628V12H121.828ZM124.228 12V0.199999H124.828V12H124.228ZM125.43 12V0.199999H126.03V12H125.43ZM126.63 12V0.199999H128.43V12H126.63ZM129.63 12V0.199999H130.83V12H129.63ZM132.031 12V0.199999H133.231V12H132.031ZM134.431 12V0.199999H135.031V12H134.431ZM136.231 12V0.199999H138.031V12H136.231ZM138.633 12V0.199999H139.833V12H138.633ZM141.033 12V0.199999H142.833V12H141.033ZM143.433 12V0.199999H144.033V12H143.433ZM145.234 12V0.199999H146.434V12H145.234ZM148.234 12V0.199999H148.834V12H148.234ZM149.434 12V0.199999H150.034V12H149.434ZM151.836 12V0.199999H153.636V12H151.836ZM155.436 12V0.199999H156.036V12H155.436ZM156.636 12V0.199999H157.836V12H156.636ZM158.438 12V0.199999H159.638V12H158.438ZM160.838 12V0.199999H161.438V12H160.838ZM162.038 12V0.199999H162.638V12H162.038ZM165.039 12V0.199999H166.239V12H165.039ZM168.639 12V0.199999H169.239V12H168.639ZM170.439 12V0.199999H171.039V12H170.439ZM171.641 12V0.199999H172.841V12H171.641ZM173.441 12V0.199999H175.241V12H173.441ZM175.841 12V0.199999H176.441V12H175.841ZM178.242 12V0.199999H178.842V12H178.242ZM179.442 12V0.199999H180.042V12H179.442ZM181.242 12V0.199999H182.442V12H181.242ZM184.844 12V0.199999H186.644V12H184.844ZM187.244 12V0.199999H187.844V12H187.244ZM189.044 12V0.199999H190.244V12H189.044ZM191.445 12V0.199999H192.045V12H191.445ZM193.845 12V0.199999H195.045V12H193.845ZM196.845 12V0.199999H197.445V12H196.845ZM198.047 12V0.199999H198.647V12H198.047ZM199.847 12V0.199999H201.047V12H199.847ZM201.647 12V0.199999H202.247V12H201.647ZM204.648 12V0.199999H205.248V12H204.648ZM205.848 12V0.199999H206.448V12H205.848ZM208.248 12V0.199999H209.448V12H208.248ZM211.25 12V0.199999H211.85V12H211.25ZM212.45 12V0.199999H213.05V12H212.45ZM214.85 12V0.199999H216.05V12H214.85ZM217.852 12V0.199999H218.452V12H217.852ZM219.052 12V0.199999H219.652V12H219.052ZM221.452 12V0.199999H222.652V12H221.452ZM224.453 12V0.199999H225.053V12H224.453ZM225.653 12V0.199999H226.253V12H225.653ZM228.053 12V0.199999H229.253V12H228.053ZM231.055 12V0.199999H231.655V12H231.055ZM233.455 12V0.199999H234.055V12H233.455ZM235.855 12V0.199999H237.055V12H235.855ZM237.656 12V0.199999H238.256V12H237.656ZM238.856 12V0.199999H240.656V12H238.856ZM241.856 12V0.199999H243.056V12H241.856ZM244.258 12V0.199999H244.858V12H244.258ZM246.058 12V0.199999H248.458V12H246.058ZM249.058 12V0.199999H249.658V12H249.058ZM250.859 12V0.199999H251.459V12H250.859ZM252.059 12V0.199999H253.259V12H252.059ZM254.459 12V0.199999H255.059V12H254.459ZM257.461 12V0.199999H258.661V12H257.461ZM261.061 12V0.199999H261.661V12H261.061ZM262.261 12V0.199999H262.861V12H262.261ZM264.062 12V0.199999H264.663V12H264.062ZM266.463 12V0.199999H268.863V12H266.463ZM269.463 12V0.199999H270.063V12H269.463ZM270.664 12V0.199999H271.264V12H270.664ZM272.464 12V0.199999H273.064V12H272.464ZM274.264 12V0.199999H276.664V12H274.264ZM277.266 12V0.199999H277.866V12H277.266ZM279.066 12V0.199999H280.266V12H279.066ZM281.466 12V0.199999H283.266V12H281.466ZM283.867 12V0.199999H284.467V12H283.867ZM285.667 12V0.199999H286.867V12H285.667ZM287.467 12V0.199999H288.067V12H287.467ZM290.469 12V0.199999H291.069V12H290.469ZM293.469 12V0.199999H294.669V12H293.469ZM295.269 12V0.199999H295.869V12H295.269ZM297.07 12V0.199999H297.67V12H297.07ZM298.27 12V0.199999H299.47V12H298.27ZM301.87 12V0.199999H302.47V12H301.87Z" fill="black"/>
</svg>
