<svg width="74" height="41" viewBox="0 0 74 41" fill="none" xmlns="http://www.w3.org/2000/svg">
<path d="M4.52 40C1 35.44 0.64 19.36 8.04 19.36C8.36 19.36 8.68 19.4 8.96 19.48C9.6 19.68 9.76 19.48 9.56 18.92C7.12 12.08 3.68 2.08 1.6 0H14.88C13.8 2.56 16.56 9.4 19.2 16.48C19.44 17.04 19.84 17.56 20.44 17.56C21.72 17.56 21.92 15.8 21.92 14.04C21.92 9.84 19.16 3.28 16.96 0H25.92C29.44 4.56 29.8 20.64 22.4 20.64C22.08 20.64 21.76 20.6 21.48 20.52C20.84 20.32 20.68 20.52 20.88 21.08C23.32 27.92 26.76 37.92 28.84 40H15.56C16.64 37.44 13.88 30.6 11.24 23.52C11 22.96 10.6 22.44 10 22.44C8.72 22.44 8.52 24.2 8.52 25.96C8.52 30.16 11.28 36.72 13.48 40H4.52ZM30.0375 30.08C30.0375 25.52 32.5575 21.92 36.5175 22.8C34.8375 25.84 36.7975 28.68 40.3575 28.68C43.6375 28.68 45.5975 25.96 45.5975 23.16C45.5975 20 43.4775 16.8 38.5575 16.8C34.5175 16.8 32.3175 19.48 31.6775 20.36V0H50.1575V14.4C49.4375 13.28 47.2375 12.04 43.9575 12.04H34.3575C33.9575 12.04 33.7175 12.28 33.7175 12.68V15.64C33.7175 16 33.7975 16 34.1575 15.8C34.8775 15.16 36.5975 14.08 40.3575 14.08C47.9175 14.08 51.7175 20.64 51.7175 27.04C51.7175 34.68 47.5975 40.6 40.2375 40.6C33.7575 40.6 30.0375 35.08 30.0375 30.08ZM53.3281 14.4V0H73.2081V12.24C69.5681 14.96 66.5281 20.68 66.5281 27C66.5281 32.52 68.1681 36.28 70.4481 40H56.9681C56.1681 38.72 55.6081 36.28 55.6081 34.4C55.6081 25.44 65.3281 17.28 70.1281 12.48C70.4081 12.2 70.3681 12.04 69.9681 12.04H58.4881C55.3681 12.04 54.0481 13.28 53.3281 14.4Z" fill="black"/>
</svg>
